<svg xmlns="http://www.w3.org/2000/svg" viewBox="0 0 1366 768"><defs><style>.cls-1{fill:#c0e6f1;}</style></defs><g id="Layer_2" data-name="Layer 2"><g id="Layer_1-2" data-name="Layer 1"><path class="cls-1" d="M0,0V98.33C13.14,85.58,24.79,79.55,24.79,79.55c54.18-28,123.13.37,140.6,7.56,15.73,6.48,30,14.17,30,14.17,25.71,13.83,36.18,23.72,64.79,36.56,3.94,1.76,7.89,3.36,12.32,5,39.43,14.75,58.9,12.7,68.4,11,23.68-4.34,41.24-17,46.63-21.12A118.58,118.58,0,0,0,408,112.44c21.22-26.74,26.65-56.7,27.44-66,1.37-16-5.84-31.79-17.3-46.48Z"/><path class="cls-1" d="M1366,768V584.13c-97.7-27.31-227.75-13.6-315.64,58.38C1014.37,672,975,719.81,956.53,768Z"/><path class="cls-1" d="M500,768c-17.68-31.06-56.48-63.21-63-68.59C322.14,604.2,218.18,674,105.18,608.75,59,582.09,24.52,540.51,0,492.28V768Z"/></g></g></svg>